<?xml version="1.0" encoding="UTF-8" standalone="no"?>
<!-- Created with Inkscape (http://www.inkscape.org/) -->

<svg
   width="512mm"
   height="512mm"
   viewBox="0 0 512 512"
   version="1.1"
   id="svg1"
   xml:space="preserve"
   inkscape:version="1.2.2 (732a01da63, 2022-12-09)"
   sodipodi:docname="IconSource.svg"
   inkscape:export-filename="..\..\..\_STUDY\Сопровождение и продвижение ПО\_PROJECT\Icon\x48.png"
   inkscape:export-xdpi="2.3812499"
   inkscape:export-ydpi="2.3812499"
   xmlns:inkscape="http://www.inkscape.org/namespaces/inkscape"
   xmlns:sodipodi="http://sodipodi.sourceforge.net/DTD/sodipodi-0.dtd"
   xmlns:xlink="http://www.w3.org/1999/xlink"
   xmlns="http://www.w3.org/2000/svg"
   xmlns:svg="http://www.w3.org/2000/svg"><sodipodi:namedview
     id="namedview1"
     pagecolor="#ffffff"
     bordercolor="#000000"
     borderopacity="0.25"
     inkscape:showpageshadow="2"
     inkscape:pageopacity="0.0"
     inkscape:pagecheckerboard="0"
     inkscape:deskcolor="#d1d1d1"
     inkscape:document-units="mm"
     inkscape:zoom="0.50000001"
     inkscape:cx="1062"
     inkscape:cy="1392"
     inkscape:window-width="1920"
     inkscape:window-height="1057"
     inkscape:window-x="-8"
     inkscape:window-y="-8"
     inkscape:window-maximized="1"
     inkscape:current-layer="layer1"
     showgrid="false"
     showguides="true"><sodipodi:guide
       position="389.46665,143.8323"
       orientation="0,-1"
       id="guide2923"
       inkscape:locked="false" /></sodipodi:namedview><defs
     id="defs1"><linearGradient
       id="linearGradient30"
       inkscape:collect="always"><stop
         style="stop-color:#878787;stop-opacity:1;"
         offset="0"
         id="stop29" /><stop
         style="stop-color:#000000;stop-opacity:1;"
         offset="1"
         id="stop30" /></linearGradient><rect
       x="898"
       y="885"
       width="129"
       height="58"
       id="rect25" /><linearGradient
       id="linearGradient15"
       inkscape:collect="always"><stop
         style="stop-color:#000000;stop-opacity:1;"
         offset="0"
         id="stop15" /><stop
         style="stop-color:#1a1010;stop-opacity:1;"
         offset="1"
         id="stop16" /></linearGradient><inkscape:path-effect
       effect="bspline"
       id="path-effect14"
       is_visible="true"
       lpeversion="1.3"
       weight="33.333333"
       steps="2"
       helper_size="0"
       apply_no_weight="true"
       apply_with_weight="true"
       only_selected="false"
       uniform="false" /><linearGradient
       id="linearGradient12"
       inkscape:collect="always"><stop
         style="stop-color:#000000;stop-opacity:1;"
         offset="0"
         id="stop11" /><stop
         style="stop-color:#eaeafd;stop-opacity:1;"
         offset="1"
         id="stop12" /></linearGradient><linearGradient
       inkscape:collect="always"
       xlink:href="#linearGradient12"
       id="linearGradient10"
       x1="489.81485"
       y1="505.73203"
       x2="-33.281364"
       y2="272.76248"
       gradientUnits="userSpaceOnUse" /><linearGradient
       inkscape:collect="always"
       xlink:href="#linearGradient30"
       id="linearGradient13"
       gradientUnits="userSpaceOnUse"
       x1="493.91409"
       y1="-76.332176"
       x2="32.927605"
       y2="698.96326"
       gradientTransform="translate(6.7351919,8.2319012)" /><linearGradient
       inkscape:collect="always"
       xlink:href="#linearGradient12"
       id="linearGradient14"
       gradientUnits="userSpaceOnUse"
       x1="560.71936"
       y1="-119.85803"
       x2="125.17696"
       y2="838.03595"
       gradientTransform="translate(-9.1819831,-17.090876)" /><linearGradient
       inkscape:collect="always"
       xlink:href="#linearGradient15"
       id="linearGradient16"
       x1="425.42267"
       y1="-28.940317"
       x2="-83.926918"
       y2="671.41534"
       gradientUnits="userSpaceOnUse"
       gradientTransform="translate(6.7351919,8.2319012)" /><filter
       style="color-interpolation-filters:sRGB;"
       inkscape:label="Drop Shadow"
       id="filter1536"
       x="-0.29900095"
       y="-0.024387563"
       width="1.5980019"
       height="1.0487751"><feFlood
         flood-opacity="0.498039"
         flood-color="rgb(0,0,0)"
         result="flood"
         id="feFlood1526" /><feComposite
         in="flood"
         in2="SourceGraphic"
         operator="in"
         result="composite1"
         id="feComposite1528" /><feGaussianBlur
         in="composite1"
         stdDeviation="4.8"
         result="blur"
         id="feGaussianBlur1530" /><feOffset
         dx="0"
         dy="0"
         result="offset"
         id="feOffset1532" /><feComposite
         in="SourceGraphic"
         in2="offset"
         operator="over"
         result="composite2"
         id="feComposite1534" /></filter><filter
       style="color-interpolation-filters:sRGB;"
       inkscape:label="Drop Shadow"
       id="filter1548"
       x="-0.034841191"
       y="-0.02527369"
       width="1.0696824"
       height="1.0505474"><feFlood
         flood-opacity="0.498039"
         flood-color="rgb(0,0,0)"
         result="flood"
         id="feFlood1538" /><feComposite
         in="flood"
         in2="SourceGraphic"
         operator="in"
         result="composite1"
         id="feComposite1540" /><feGaussianBlur
         in="composite1"
         stdDeviation="4.8"
         result="blur"
         id="feGaussianBlur1542" /><feOffset
         dx="0"
         dy="0"
         result="offset"
         id="feOffset1544" /><feComposite
         in="SourceGraphic"
         in2="offset"
         operator="over"
         result="composite2"
         id="feComposite1546" /></filter><filter
       style="color-interpolation-filters:sRGB;"
       inkscape:label="Drop Shadow"
       id="filter2286"
       x="-0.034841191"
       y="-0.02527369"
       width="1.0696824"
       height="1.0505474"><feFlood
         flood-opacity="0.498039"
         flood-color="rgb(0,0,0)"
         result="flood"
         id="feFlood2276" /><feComposite
         in="flood"
         in2="SourceGraphic"
         operator="in"
         result="composite1"
         id="feComposite2278" /><feGaussianBlur
         in="composite1"
         stdDeviation="4.8"
         result="blur"
         id="feGaussianBlur2280" /><feOffset
         dx="0"
         dy="0"
         result="offset"
         id="feOffset2282" /><feComposite
         in="SourceGraphic"
         in2="offset"
         operator="over"
         result="composite2"
         id="feComposite2284" /></filter><filter
       style="color-interpolation-filters:sRGB;"
       inkscape:label="Drop Shadow"
       id="filter3423"
       x="-0.055894365"
       y="-0.045016826"
       width="1.1118752"
       height="1.0910646"><feFlood
         flood-opacity="0.498039"
         flood-color="rgb(0,0,0)"
         result="flood"
         id="feFlood3413" /><feComposite
         in="flood"
         in2="SourceGraphic"
         operator="in"
         result="composite1"
         id="feComposite3415" /><feGaussianBlur
         in="composite1"
         stdDeviation="3.9"
         result="blur"
         id="feGaussianBlur3417" /><feOffset
         dx="0"
         dy="0"
         result="offset"
         id="feOffset3419" /><feComposite
         in="SourceGraphic"
         in2="offset"
         operator="over"
         result="composite2"
         id="feComposite3421" /></filter></defs><g
     inkscape:label="Слой 1"
     inkscape:groupmode="layer"
     id="layer1"
     style="fill-opacity:1;fill:url(#linearGradient10)"><rect
       style="display:inline;fill:url(#linearGradient14);fill-opacity:1;stroke-width:0.264583;filter:url(#filter2286)"
       id="rect13"
       width="330.64313"
       height="455.81"
       x="90.662109"
       y="15.466978"
       ry="34.004871" /><rect
       style="fill:url(#linearGradient13);fill-opacity:1;stroke-width:0.264583;filter:url(#filter1548)"
       id="rect1"
       width="330.64313"
       height="455.81"
       x="106.57928"
       y="40.789757"
       ry="34.004871" /><rect
       style="fill:#afafaf;fill-opacity:1;stroke-width:0.250784"
       id="rect18-5-8"
       width="257.39038"
       height="17.39431"
       x="150.93312"
       y="389.49649"
       ry="8.697155" /><path
       style="fill:#fadda4;fill-opacity:0.705394;stroke-width:0.264583"
       d="m 398.54592,22.613723 c -1.73737,2.033872 -5.21215,6.101665 -3.80247,9.494819 1.40967,3.393153 7.70269,6.111126 10.85971,7.422813 3.15703,1.311687 3.17707,1.216449 -42.06155,1.203864 -45.23862,-0.01259 -135.70516,0.05766 -182.91821,0.08688 -47.21306,0.02922 -51.14207,0.01738 -53.02179,-3.16677 -1.87973,-3.184147 -1.70866,-9.539867 1.18743,-12.769315 2.89609,-3.229449 8.51732,-3.332522 53.73898,-3.524826 45.22167,-0.192304 130.03169,-0.473798 214.8477,-0.755311 0,0 2.15958,-0.04706 2.15958,-0.04706 0.24932,0.007 0.49892,0.01403 0.62343,0.01753 0.12452,0.0035 0.12456,0.0035 -1.61281,2.037378 z"
       id="path14"
       inkscape:path-effect="#path-effect14"
       inkscape:original-d="m 400.28329,20.579852 c -3.47445,4.067987 -6.94923,8.13578 -10.42433,12.203371 6.29411,2.718599 12.58712,5.436573 18.88124,8.154874 0.0203,-0.09499 0.0404,-0.190214 0.0601,-0.285735 -90.49731,0.07054 -180.96385,0.140785 -271.45999,0.210792 -3.92997,-0.01158 -7.85898,-0.02341 -11.78952,-0.03552 0.17136,-6.356446 0.34243,-12.712166 0.51324,-19.067999 5.6211,-0.102802 11.24233,-0.205875 16.86366,-0.309219 84.822,-0.281268 254.44803,-0.84454 254.44803,-0.84454 l 2.15958,-0.04706 c 0,0 0.49891,0.01429 0.74795,0.02103 z"
       sodipodi:nodetypes="ccccccccccc" /><path
       style="fill:url(#linearGradient16);fill-opacity:1;stroke-width:0.264583;filter:url(#filter1536)"
       d="M 116.75228,487.71326 116.99755,37.863983 C 75.954073,15.186433 171.33945,13.172471 100.9721,16.733119 87.212311,17.429376 91.575093,34.015528 89.215092,54.536407 l 2.170525,399.376373 c -1.275469,0.54663 11.038983,29.63639 25.366663,33.80048 z"
       id="path15"
       sodipodi:nodetypes="ccsccc" /><rect
       style="fill:#c5c5c5;fill-opacity:1;stroke-width:0.264583"
       id="rect18"
       width="286.49454"
       height="17.39431"
       x="132.58815"
       y="70.646774"
       ry="8.697155" /><rect
       style="fill:#a5a5a5;fill-opacity:1;stroke-width:0.264583"
       id="rect18-1"
       width="286.49454"
       height="17.39431"
       x="132.14769"
       y="429.97772"
       ry="8.697155" /><rect
       style="fill:#bcbcbc;fill-opacity:1;stroke-width:0.250784"
       id="rect18-5"
       width="257.39038"
       height="17.39431"
       x="155.96022"
       y="101.62982"
       ry="8.697155" /><rect
       style="fill:#a11f12;fill-opacity:1;stroke-width:0.264583"
       id="rect16"
       width="26.603058"
       height="457.78119"
       x="140.7737"
       y="38.927742"
       ry="4.7322755" /><path
       style="display:inline;opacity:0.462998;fill:#ffffff;fill-opacity:1;stroke-width:0.356601"
       d="m 230.07936,340.40091 -3.65219,-0.041 -3.31603,-0.15083 c -1.94358,-0.48829 -3.31367,-1.49982 -5.06395,-3.08523 -1.3407,-1.47265 -1.91129,-5.55752 -2.04305,-6.52694 l 0.0411,-152.97746 c 0.40167,-2.01679 1.31212,-4.42518 1.85165,-5.21305 0.67197,-1.15622 1.63673,-2.09753 2.4873,-2.84126 2.63501,-1.74195 9.7405,-4.40396 13.43399,-2.81821 L 316.7274,304.3452 c -0.0303,-43.26284 -1.80209,-87.0003 -0.0909,-129.78851 0.0908,-0.75316 1.31676,-4.44458 2.03776,-5.31329 1.46204,-1.20157 3.07699,-2.27907 4.59147,-2.90649 1.2337,-0.44685 2.85907,-0.6326 4.84109,-0.58058 l 3.22673,0.51645 c 1.17138,0.1331 2.59962,1.15009 3.42203,1.82454 1.32037,0.86613 2.91234,3.44512 3.14476,4.33374 0.56841,53.85806 1.09931,106.77702 0.0142,159.65701 -0.0978,2.29747 -3.0544,5.20833 -3.88571,6.02918 -0.97807,1.23086 -5.29269,2.55739 -6.34927,2.81324 -1.05658,0.25585 -8.16891,0.13259 -8.16891,0.13259 l -79.53575,-128.9697 -1.44968,-2.12352 c -1.50939,-2.23606 -0.67144,0.48492 -1.01615,1.08295 l 1.68164,120.24565 c 0.11038,2.66305 -3.28848,7.35348 -6.11446,8.90344 z"
       id="path28"
       sodipodi:nodetypes="ccccccccccccccccccczccccccc" /><path
       style="opacity:0.671727;fill:#000000;fill-opacity:1;stroke-width:1.49671"
       d="m 114.76804,135.57692 c -0.14838,-1.57778 -0.69595,-2.44252 -1.21683,-1.92164 -0.52087,0.52087 -2.2586,-0.72033 -3.86162,-2.75823 -1.60302,-2.0379 -3.53892,-3.31941 -4.302,-2.8478 -0.76309,0.47162 -1.77518,-0.15296 -2.24908,-1.38794 -0.50504,-1.31611 -1.84117,-1.86955 -3.228378,-1.33723 -1.327605,0.50945 -1.97703,0.27766 -1.479145,-0.52794 0.48817,-0.78987 -1.083204,-2.75651 -3.491941,-4.37029 -3.99373,-2.6757 -4.379905,-3.6934 -4.383829,-11.55293 -0.0042,-8.43092 0.06668,-8.57771 3.252674,-6.73519 1.791338,1.03596 5.258827,3.73575 7.705529,5.99952 2.44671,2.26377 5.6957,4.11595 7.21999,4.11595 1.63292,0 2.78085,1.07599 2.79435,2.61924 0.0188,2.14454 0.26854,2.23112 1.37812,0.47773 1.89708,-2.9978 3.45068,5.96232 2.70764,15.6159 -0.31663,4.11375 -0.6971,6.18863 -0.84548,4.61085 z"
       id="path29" /><path
       style="opacity:0.671727;fill:#343434;fill-opacity:1;stroke-width:0.264583"
       d="m 240.56071,110.03058 c 3.38336,-0.0419 8.91977,-0.0419 12.30312,0 3.38336,0.0419 0.61516,0.0761 -6.15156,0.0761 -6.76672,0 -9.53492,-0.0343 -6.15156,-0.0761 z"
       id="path36" /><path
       style="opacity:0.671727;fill:#343434;fill-opacity:1;stroke-width:0.264583"
       d="m 244.00029,110.05355 c 0.1819,-0.0734 0.47956,-0.0734 0.66146,0 0.1819,0.0734 0.0331,0.13345 -0.33073,0.13345 -0.3638,0 -0.51263,-0.0601 -0.33073,-0.13345 z"
       id="path37" /><path
       style="opacity:0.671727;fill:#343434;fill-opacity:1"
       d=""
       id="path38"
       transform="scale(0.26458333)" /></g></svg>
